# xmcd
#
# Track frame offsets:
# 150
# 31445
# 65540
# 95330
# 128692
# 168510
# 184677
# 219682
# 245652
# 287767
#
# Disc length: 4138 seconds
#
#
# Revision: 11
# Processed by: cddbd v1.5.2PL0 Copyright (c) Steve Scherf et al.
# Submitted via: FreeRIP 2.951 
#
DISCID=9210280a
DTITLE=Yanni - Live At The Acropolis
DYEAR=1994
DGENRE=New Age
TTITLE0=Santorini
TTITLE1=Keys To Imagination
TTITLE2=Until The Last Moment
TTITLE3=The Rain Must Fall
TTITLE4=Acroyali
TTITLE5=One Man's Dream
TTITLE6=Within Attraction
TTITLE7=Nostalgia
TTITLE8=Swept Away
TTITLE9=Reflections Of Passion
EXTD=ID3G:  12
EXTT0=
EXTT1=
EXTT2=
EXTT3=
EXTT4=
EXTT5=
EXTT6=
EXTT7=
EXTT8=
EXTT9=
PLAYORDER=
